<svg xmlns="http://www.w3.org/2000/svg" width="209" height="40" fill="none" xmlns:v="https://vecta.io/nano"><path d="M20 0C8.963 0 0 8.963 0 20s8.963 20 20 20 20-8.963 20-20S31.037 0 20 0zm0 35.111C11.63 35.111 4.815 28.37 4.815 20A15.21 15.21 0 0 1 20 4.815 15.21 15.21 0 0 1 35.185 20C35.111 28.37 28.37 35.111 20 35.111z" fill="#f2f5f9"/><g fill="#f9c846"><path d="M17.556 22.889c1.407 1.259 3.481 1.259 4.815 0v-5.778c-1.407-1.259-3.482-1.259-4.815 0v5.778zm2.445-13.185c-2.741 0-5.333 1.111-7.259 3.037l3.407 3.407a5.41 5.41 0 0 1 7.704 0l3.407-3.407c-1.926-1.926-4.518-3.037-7.259-3.037z"/><path d="M23.852 23.852a5.41 5.41 0 0 1-7.704 0l-3.407 3.407c4 4 10.519 4 14.519 0l-3.407-3.407zM19.996 40c.148-2.37-1.259-4.519-3.556-5.259-5.926-1.482-10.37-6.296-11.333-12.296h10.074c-.815-1.556-.815-3.333 0-4.815H5.107c1.334-8.297 9.037-13.852 17.26-12.593a14.83 14.83 0 0 1 5.481 2c2.074 1.259 4.815.741 6.296-1.185-7.778-7.778-20.444-7.778-28.296 0s-7.852 20.444 0 28.296C9.626 37.852 14.663 40 19.996 40z"/></g><path d="M54.889 17.407v11.926a5.61 5.61 0 0 1-2.222 0V17.407H51.26c-.074-.222-.148-.444-.148-.741 0-.222.074-.519.148-.741h1.407v-1.63c0-2.445 1.037-3.852 3.778-3.852.815 0 1.556.074 2.37.296.148.444.148.963 0 1.407a5.78 5.78 0 0 0-1.63-.222c-1.778 0-2.222.741-2.222 2.37v1.63h3.852c.074.222.148.518.148.741s-.074.518-.148.741h-3.926zm8.667.297s1.63-1.852 4.741-1.852c.074.222.074.518.074.815 0 .222 0 .518-.074.741-1.926-.074-3.704.889-4.741 2.444v9.482c-.37.074-.741.148-1.111.148s-.741-.074-1.111-.148v-13.26c.37-.074.741-.148 1.111-.148s.741.074 1.111.148v1.63zm6.963 2.444c0-2.741 1.481-4.296 5.407-4.296 4 0 5.259 1.556 5.259 4.296v3.037a40.29 40.29 0 0 1-4.222.222h-4.222v1.852c0 1.926.815 2.815 3.556 2.815 2.815 0 4.519-.963 4.519-.963.074.222.148.518.148.741s-.074.518-.148.741c0 0-1.556.963-4.519.963-4.222 0-5.778-1.555-5.778-4.296v-5.111zm8.518 1.778v-1.778c0-1.926-.741-2.815-3.185-2.815s-3.185.889-3.185 2.815v1.778h6.37zm5.112-1.778c0-2.741 1.481-4.296 5.407-4.296 4 0 5.259 1.556 5.259 4.296v3.037a40.29 40.29 0 0 1-4.222.222h-4.222v1.852c0 1.926.815 2.815 3.555 2.815 2.815 0 4.519-.963 4.519-.963.148.222.148.518.148.741s-.074.518-.148.741c0 0-1.556.963-4.519.963-4.222 0-5.778-1.555-5.778-4.296v-5.111zm8.593 1.778v-1.778c0-1.926-.741-2.815-3.185-2.815s-3.185.889-3.185 2.815v1.778h6.37zM102.297 28c.074.222.074.445.074.667s0 .444-.074.667a4.32 4.32 0 0 1-1.408.222c-2 0-2.74-1.111-2.74-3.037V10.741c.741-.148 1.481-.148 2.222 0v15.852c0 1.037.296 1.556 1.259 1.556.222-.074.444-.148.667-.148zm10.518.222s-1.63 1.259-4.667 1.259c-2.666 0-3.703-1.333-3.703-3.63v-.37c0-2.148 1.333-3.333 4.814-3.704l3.482-.37v-1.482c0-1.778-.741-2.667-3.037-2.667-2.222 0-2.963.815-2.963 2.593v.37c-.371.074-.667.148-1.037.148s-.741-.074-1.037-.148v-.37c0-2.593 1.185-4.074 5.111-4.074 3.852 0 5.259 1.482 5.259 4.074v9.407c-.37.074-.741.148-1.111.148s-.741-.074-1.111-.148v-1.037zm-3.111-4.963c-2.222.222-2.963.963-2.963 2.222v.444c0 1.482.518 2.148 2.296 2.148 2.741 0 3.852-1.333 3.852-1.333v-3.852l-3.185.37zm10.889-6.148s1.555-1.259 4.518-1.259 4 1.556 4 4.296v9.185c-.37.074-.74.148-1.111.148s-.741-.074-1.111-.148v-9.185c0-1.926-.592-2.815-2.518-2.815-2.741 0-3.778 1.333-3.778 1.333v10.667c-.371.074-.741.148-1.111.148s-.741-.074-1.111-.148V16.074c.37-.074.74-.148 1.111-.148s.74.074 1.111.148v1.037zm11.851 3.037c0-2.741 1.408-4.296 5.26-4.296s5.111 1.556 5.111 4.296v.37c-.371.074-.667.148-1.037.148s-.667-.074-.963-.148v-.37c0-1.926-.741-2.815-3.037-2.815s-3.037.889-3.037 2.815v5.185c0 1.926.814 2.815 3.407 2.815 2.667 0 4.296-.963 4.296-.963.149.222.149.519.149.741s-.075.519-.149.741c0 0-1.481.963-4.296.963-4.074 0-5.63-1.556-5.63-4.296v-5.185h-.074zm13.038 0c0-2.741 1.481-4.296 5.407-4.296 4 0 5.259 1.556 5.259 4.296v3.037c-1.407.148-2.814.222-4.222.222h-4.222v1.852c0 1.926.815 2.815 3.556 2.815 2.814 0 4.518-.963 4.518-.963.074.222.148.518.148.741s-.074.518-.148.741c0 0-1.555.963-4.518.963-4.223 0-5.778-1.555-5.778-4.296v-5.111zm8.592 1.778v-1.778c0-1.926-.74-2.815-3.185-2.815s-3.185.889-3.185 2.815v1.778h6.37zm7.63-4.815s1.555-1.259 4.518-1.259 4 1.555 4 4.296v9.185c-.37.074-.741.148-1.111.148s-.741-.074-1.111-.148v-9.185c0-1.926-.593-2.815-2.444-2.815-2.741 0-3.778 1.333-3.778 1.333v10.667c-.371.074-.741.148-1.111.148s-.741-.074-1.111-.148V10.741c.37-.074.74-.148 1.111-.148s.74.074 1.111.148v6.37h-.074zM182 28.222s-1.555 1.259-4.518 1.259c-2.889 0-4-1.556-4-4.296v-9.111c.37-.074.74-.148 1.111-.148s.741.074 1.111.148v9.185c0 1.926.593 2.815 2.444 2.815 2.741 0 3.778-1.333 3.778-1.333V16.074c.37-.074.741-.148 1.111-.148s.741.074 1.111.148v13.259c-.37.074-.74.148-1.111.148s-.741-.074-1.111-.148l.074-1.111zm7.704-11.111s1.556-1.259 4.519-1.259 4 1.556 4 4.296v9.185a5.62 5.62 0 0 1-2.223 0v-9.185c0-1.926-.592-2.815-2.518-2.815-2.741 0-3.778 1.333-3.778 1.333v10.667c-.37.074-.741.148-1.111.148s-.741-.074-1.111-.148V16.074a5.61 5.61 0 0 1 2.222 0v1.037zm14.963.371v8.222c0 1.63.592 2.37 2.296 2.37.519 0 1.037-.074 1.482-.296.148.444.148.889 0 1.333-.741.222-1.482.37-2.223.37-2.74 0-3.777-1.407-3.777-3.852v-8.148h-1.408c-.074-.222-.148-.445-.148-.741 0-.222.074-.518.148-.741h1.482l.222-2.593a3.92 3.92 0 0 1 1.852 0V16h3.777c.075.222.149.518.149.741s-.074.519-.149.741h-3.703z" fill="#84848a"/></svg>